<svg width="40" height="40" fill="none" xmlns="http://www.w3.org/2000/svg"><path d="M14.18 15.6V24h-1.188v-7.356h-1.896V15.6h3.084zm6.973 3.996c.48.184.848.448 1.104.792.256.344.384.756.384 1.236 0 .504-.136.944-.408 1.32-.272.368-.66.652-1.164.852-.504.2-1.096.3-1.776.3-.672 0-1.26-.1-1.764-.3-.496-.2-.88-.484-1.152-.852a2.192 2.192 0 01-.408-1.32c0-.48.124-.892.372-1.236.256-.344.624-.608 1.104-.792-.384-.184-.676-.428-.876-.732-.2-.304-.3-.664-.3-1.08 0-.464.124-.868.372-1.212.256-.344.612-.608 1.068-.792.456-.184.984-.276 1.584-.276.608 0 1.14.092 1.596.276.464.184.82.448 1.068.792.256.344.384.748.384 1.212 0 .408-.104.768-.312 1.08-.2.304-.492.548-.876.732zm-1.86-3.12c-.568 0-1.016.124-1.344.372-.328.24-.492.568-.492.984 0 .416.16.744.48.984.328.24.78.36 1.356.36.584 0 1.04-.12 1.368-.36.336-.24.504-.568.504-.984 0-.416-.172-.744-.516-.984-.336-.248-.788-.372-1.356-.372zm0 6.648c.664 0 1.188-.136 1.572-.408.384-.28.576-.656.576-1.128 0-.464-.192-.828-.576-1.092-.384-.272-.908-.408-1.572-.408s-1.184.136-1.56.408a1.262 1.262 0 00-.564 1.092c0 .472.188.848.564 1.128.376.272.896.408 1.56.408zm10.051-2.844H27.16v2.148h-1.008V20.28h-2.184v-.948h2.184v-2.16h1.008v2.16h2.184v.948z" fill="#9BA5AE"/><path d="M5.867 19.74l6.936-12.015h13.874l6.937 12.015-6.937 12.015H12.804L5.866 19.74z" stroke="#9BA5AE"/></svg>