<svg width="20" height="15" fill="none" xmlns="http://www.w3.org/2000/svg"><g clip-path="url(#clip0_7_174)"><path d="M4.692 0h10.614v15H4.692V0z" fill="#fff"/><path d="M-.614 0h5.306v15H-.614V0zm15.92 0h5.306v15h-5.303l-.003-15zM6.282 7.248l-.416.14 1.92 1.685c.146.43-.05.557-.176.785l2.08-.263-.05 2.095.433-.012-.096-2.08 2.086.249c-.13-.273-.244-.416-.126-.85L13.853 7.4l-.334-.123c-.276-.21.117-1.016.175-1.526 0 0-1.116.384-1.189.182l-.287-.548L11.2 6.504c-.111.026-.158-.018-.184-.111l.469-2.338-.745.419c-.061.029-.123.005-.164-.068L9.86 2.971 9.12 4.46c-.055.054-.111.06-.158.024l-.709-.398.428 2.317c-.035.094-.117.117-.211.068l-.976-1.105c-.126.205-.21.536-.38.612-.168.07-.733-.14-1.11-.222.128.466.532 1.24.277 1.494v-.003z" fill="#D52B1E"/></g><defs><clipPath id="clip0_7_174"><path fill="#fff" d="M0 0h20v15H0z"/></clipPath></defs></svg>