<svg width="152" height="35" fill="none" xmlns="http://www.w3.org/2000/svg"><path d="M104.014 24.18c-.852 0-1.674-.084-2.466-.252-.792-.168-1.41-.384-1.854-.648l1.404-2.772c.468.288 1.008.51 1.62.666a7.417 7.417 0 001.8.234c.804 0 1.206-.156 1.206-.468 0-.132-.108-.228-.324-.288-.204-.072-.534-.138-.99-.198a14.08 14.08 0 01-1.8-.378 3.16 3.16 0 01-1.296-.792c-.372-.384-.558-.912-.558-1.584 0-1.212.516-2.136 1.548-2.772 1.032-.636 2.364-.954 3.996-.954.72 0 1.41.066 2.07.198.672.12 1.266.3 1.782.54l-1.404 2.772c-.852-.492-1.83-.738-2.934-.738-.432 0-.75.048-.954.144-.192.096-.288.21-.288.342 0 .132.102.234.306.306.204.06.552.132 1.044.216.696.108 1.284.24 1.764.396.492.144.918.408 1.278.792.372.372.558.888.558 1.548 0 .792-.246 1.47-.738 2.034-.48.552-1.14.966-1.98 1.242-.828.276-1.758.414-2.79.414zm14.354-10.206c.672 0 1.32.18 1.944.54.624.36 1.128.888 1.512 1.584.396.684.594 1.494.594 2.43 0 1.056-.24 2.016-.72 2.88a5.283 5.283 0 01-1.908 2.034 4.91 4.91 0 01-2.61.738c-1.32 0-2.256-.408-2.808-1.224l-.918 4.536h-4.068l2.664-13.338h3.834l-.18.9a3.697 3.697 0 012.664-1.08zm-1.854 7.002c.528 0 .954-.204 1.278-.612.336-.408.504-.954.504-1.638 0-.468-.132-.84-.396-1.116-.252-.288-.606-.432-1.062-.432-.528 0-.96.204-1.296.612-.324.408-.486.954-.486 1.638 0 .468.126.846.378 1.134.264.276.624.414 1.08.414zm11.955 3.204c-1.08 0-2.022-.186-2.826-.558-.804-.384-1.428-.918-1.872-1.602-.432-.684-.648-1.482-.648-2.394 0-1.068.264-2.028.792-2.88a5.561 5.561 0 012.178-2.034c.936-.492 1.992-.738 3.168-.738 1.08 0 2.022.192 2.826.576.804.372 1.422.9 1.854 1.584.444.684.666 1.482.666 2.394 0 1.068-.264 2.034-.792 2.898-.528.852-1.26 1.524-2.196 2.016-.924.492-1.974.738-3.15.738zm.234-3.204c.528 0 .954-.204 1.278-.612.336-.408.504-.954.504-1.638 0-.468-.132-.84-.396-1.116-.252-.288-.606-.432-1.062-.432-.528 0-.96.204-1.296.612-.324.408-.486.954-.486 1.638 0 .468.126.846.378 1.134.264.276.624.414 1.08.414zm11.75-5.814c.804-.792 1.956-1.188 3.456-1.188l-.72 3.6a5.578 5.578 0 00-.882-.072c-.696 0-1.248.156-1.656.468-.396.3-.666.792-.81 1.476L138.923 24h-4.068l1.962-9.846h3.834l-.198 1.008zm8.167 4.968c-.024.144-.036.24-.036.288 0 .456.252.684.756.684.264 0 .564-.078.9-.234l.468 2.736c-.696.384-1.584.576-2.664.576-1.116 0-1.998-.264-2.646-.792-.636-.54-.954-1.296-.954-2.268 0-.312.036-.636.108-.972l.504-2.484h-1.368l.594-2.97h1.35l.558-2.754h4.068l-.558 2.754h2.016l-.594 2.97h-2.016l-.486 2.466z" fill="#F36523"/><path d="M100 25.8h51.698v.9H100v-.9z" fill="#F36523"/><path d="M24.128 7.7L20.068 28h-5.626l-5.829-9.454L6.728 28H.058l4.06-20.3h5.626l5.829 9.454L17.458 7.7h6.67zm8.982 5.162l-.464 2.378h8.584l-.986 4.93H31.63l-.522 2.668h10.179L40.244 28H23.366l4.06-20.3h16.5l-1.043 5.162H33.11zM79.686 7.7L69.13 28h-7.337l-1.16-10.701L55.065 28h-7.337L45.292 7.7h6.757l1.305 11.571L59.386 7.7h6.293l1.16 11.745L72.96 7.7h6.727zm5.522 20.764c-1.76 0-3.412-.184-4.96-.551-1.546-.387-2.822-.89-3.827-1.508l2.639-5.046c2.185 1.257 4.466 1.885 6.844 1.885.87 0 1.537-.106 2-.319.465-.213.697-.503.697-.87 0-.348-.242-.628-.725-.841-.464-.213-1.208-.445-2.233-.696-1.353-.348-2.475-.696-3.364-1.044a6.583 6.583 0 01-2.35-1.653c-.656-.754-.985-1.74-.985-2.958 0-1.527.406-2.861 1.218-4.002.831-1.16 2.02-2.05 3.567-2.668 1.547-.638 3.374-.957 5.48-.957 1.509 0 2.91.155 4.206.464 1.315.29 2.446.715 3.393 1.276l-2.465 4.988a9.225 9.225 0 00-2.64-1.131 11.375 11.375 0 00-2.928-.377c-.947 0-1.682.135-2.204.406-.522.27-.783.59-.783.957s.232.657.696.87c.483.213 1.266.445 2.349.696 1.315.31 2.417.638 3.306.986.909.348 1.692.89 2.349 1.624.657.735.986 1.701.986 2.9 0 1.508-.416 2.832-1.247 3.973-.831 1.14-2.02 2.03-3.567 2.668-1.547.619-3.364.928-5.452.928z" fill="#fff"/></svg>