<svg width="20" height="15" fill="none" xmlns="http://www.w3.org/2000/svg"><path d="M0 0h20v15H0V0z" fill="#EE1C25"/><path d="M0 0h20v10H0V0z" fill="#0B4EA2"/><path d="M0 0h20v5H0V0z" fill="#fff"/><path d="M7.281 11.588c-1.343-.647-3.268-1.935-3.268-4.476 0-2.543.125-3.7.125-3.7h6.29s.122 1.157.122 3.7c0 2.544-1.925 3.825-3.269 4.476z" fill="#fff"/><path d="M7.281 11.25c-1.234-.594-3-1.775-3-4.106 0-2.332.113-3.394.113-3.394h5.775s.11 1.063.11 3.394c.002 2.334-1.763 3.512-2.998 4.106z" fill="#EE1C25"/><path d="M7.544 6.531c.334.006.987.019 1.565-.175 0 0-.012.21-.012.45 0 .24.016.45.016.45-.532-.178-1.191-.181-1.57-.178v1.288H7.02V7.078c-.375-.003-1.035 0-1.566.178 0 0 .016-.21.016-.45 0-.244-.016-.45-.016-.45.578.194 1.231.181 1.563.175v-.81c-.303 0-.741.013-1.238.179 0 0 .016-.206.016-.45 0-.24-.016-.45-.016-.45.497.166.935.181 1.238.178C7 4.666 6.85 4.022 6.85 4.022s.31.022.431.022c.125 0 .432-.022.432-.022s-.15.644-.166 1.156c.303.003.74-.012 1.237-.178 0 0-.015.21-.015.45 0 .244.015.45.015.45-.4-.13-.82-.19-1.24-.178v.812-.003z" fill="#fff"/><path d="M7.281 8.228c-.622 0-.953.86-.953.86s-.187-.407-.694-.407c-.343 0-.593.303-.756.588.625.99 1.622 1.603 2.403 1.981.781-.375 1.781-.99 2.403-1.981-.162-.281-.412-.588-.756-.588-.506 0-.694.407-.694.407s-.328-.86-.953-.86z" fill="#0B4EA2"/></svg>