<svg width="25" height="25" fill="none" xmlns="http://www.w3.org/2000/svg"><circle cx="12.5" cy="12.5" r="12.5" fill="#40A2F5"/><path fill-rule="evenodd" clip-rule="evenodd" d="M18.453 8.866a4.96 4.96 0 01-1.404.378c.508-.298.89-.771 1.073-1.33a4.94 4.94 0 01-1.55.583 2.459 2.459 0 00-1.783-.759c-1.348 0-2.443 1.078-2.443 2.405 0 .189.022.373.064.547a6.966 6.966 0 01-5.032-2.513 2.37 2.37 0 00-.33 1.209c0 .834.43 1.57 1.086 2a2.465 2.465 0 01-1.106-.3v.03c0 1.165.841 2.137 1.958 2.357a2.49 2.49 0 01-1.103.04 2.44 2.44 0 002.281 1.67 4.947 4.947 0 01-3.616.998 6.99 6.99 0 003.744 1.08c4.492 0 6.947-3.663 6.947-6.841 0-.104-.002-.208-.007-.312.478-.34.89-.76 1.219-1.245l.002.003z" fill="#fff"/></svg>