<svg width="25" height="25" fill="none" xmlns="http://www.w3.org/2000/svg"><circle cx="12.5" cy="12.5" r="12.5" fill="#5176AA"/><path fill-rule="evenodd" clip-rule="evenodd" d="M18.747 9.453c.091-.302 0-.524-.433-.524H16.88c-.364 0-.532.191-.623.403 0 0-.728 1.766-1.76 2.914-.335.333-.486.438-.668.438-.092 0-.223-.105-.223-.407V9.452c0-.362-.106-.523-.41-.523h-2.252c-.227 0-.365.168-.365.327 0 .344.516.423.57 1.39v2.098c0 .462-.084.544-.266.544-.486 0-1.667-1.775-2.367-3.805-.138-.395-.276-.555-.641-.555H6.444c-.41 0-.492.192-.492.404 0 .377.486 2.25 2.262 4.727 1.183 1.691 2.851 2.607 4.37 2.607.91 0 1.023-.203 1.023-.554v-1.278c0-.407.086-.489.375-.489.212 0 .576.106 1.426.922.972.966 1.132 1.4 1.678 1.4h1.433c.409 0 .614-.204.496-.606-.13-.4-.594-.981-1.209-1.67-.334-.393-.835-.816-.987-1.027-.212-.272-.151-.393 0-.634 0 0 1.746-2.447 1.928-3.278v.001z" fill="#fff"/></svg>